<?xml version="1.0" standalone="no"?>
<!DOCTYPE svg PUBLIC "-//W3C//DTD SVG 20010904//EN"
 "http://www.w3.org/TR/2001/REC-SVG-20010904/DTD/svg10.dtd">
<svg version="1.0" xmlns="http://www.w3.org/2000/svg"
 width="500.000000pt" height="500.000000pt" viewBox="0 0 500.000000 500.000000"
 preserveAspectRatio="xMidYMid meet">

<g transform="translate(0.000000,500.000000) scale(0.100000,-0.100000)"
fill="#000000" stroke="none">
<path d="M2405 4379 c-315 -21 -621 -124 -927 -311 -280 -171 -530 -457 -694
-793 -137 -282 -189 -503 -187 -800 1 -371 89 -670 291 -995 239 -383 591
-658 1032 -804 166 -55 241 -71 439 -93 133 -15 173 -15 305 -5 245 20 392 53
611 139 357 139 722 455 928 801 156 264 252 584 264 877 12 303 -32 519 -168
833 -115 266 -293 505 -508 685 -129 108 -156 127 -279 201 -252 151 -530 239
-842 266 -63 5 -122 9 -130 8 -8 0 -69 -5 -135 -9z m-7 -141 c-3 -7 -42 -18
-95 -25 -50 -6 -118 -19 -153 -28 -59 -15 -90 -13 -61 4 16 10 162 41 239 51
31 4 61 8 65 9 5 0 7 -5 5 -11z m377 -3 c84 -11 227 -47 218 -55 -4 -4 -60 3
-123 16 -63 13 -134 24 -157 24 -33 0 -43 4 -43 16 0 12 7 14 28 10 15 -2 50
-8 77 -11z m-208 -17 c28 -26 30 -42 3 -35 -18 5 -20 0 -20 -59 l0 -65 93 3
92 3 3 38 c5 53 32 51 32 -3 0 -38 2 -40 30 -40 20 0 30 -5 30 -15 0 -10 -10
-15 -30 -15 -29 0 -30 -2 -30 -45 0 -33 -4 -45 -15 -45 -11 0 -15 12 -15 45
l0 45 -95 0 -95 0 0 -40 c0 -29 -4 -40 -15 -40 -11 0 -15 11 -15 40 l0 40 -90
0 -90 0 0 -45 c0 -33 -4 -45 -15 -45 -11 0 -15 12 -15 45 0 45 0 45 -35 45
-24 0 -35 5 -35 15 0 10 11 15 35 15 34 0 35 1 35 40 0 29 4 40 15 40 11 0 15
-11 15 -40 l0 -40 90 0 90 0 0 60 c0 47 -3 60 -15 60 -20 0 -19 19 2 42 21 23
32 23 60 -4z m-581 -63 c23 -35 3 -75 -36 -75 -33 0 -50 17 -50 50 0 53 57 69
86 25z m1180 0 c15 -23 15 -27 0 -50 -27 -40 -96 -25 -96 21 0 55 66 75 96 29z
m-1300 -50 c-11 -8 -45 -24 -75 -36 -76 -28 -166 -79 -303 -171 -87 -59 -144
-108 -227 -195 -61 -63 -124 -137 -139 -164 -15 -27 -33 -49 -40 -49 -25 0 66
125 176 241 l114 119 -21 29 c-31 43 -25 51 9 12 l29 -34 38 31 c104 82 386
231 438 231 20 0 20 0 1 -14z m240 -66 c9 -15 -11 -33 -30 -26 -9 4 -13 13
-10 22 7 17 30 20 40 4z m902 -6 c5 -17 -26 -29 -40 -15 -6 6 -7 15 -3 22 9
14 37 9 43 -7z m488 -54 c93 -61 164 -117 164 -129 0 -11 -253 157 -258 171
-7 19 17 8 94 -42z m-1746 34 c0 -5 -29 -23 -65 -42 -180 -93 -386 -263 -497
-411 -58 -76 -65 -82 -37 -31 27 49 110 146 203 236 64 62 151 124 291 207 77
46 105 57 105 41z m1798 -130 c50 -35 92 -68 92 -73 0 -16 -10 -12 -49 18 -20
16 -75 53 -123 83 -48 30 -87 60 -88 67 0 17 39 -5 168 -95z m-1625 65 c17
-23 19 -31 9 -53 -17 -37 -53 -51 -88 -34 -40 19 -52 60 -30 94 24 36 80 32
109 -7z m1311 10 c36 -52 1 -115 -58 -104 -53 11 -72 59 -40 104 10 15 25 22
49 22 24 0 39 -7 49 -22z m-1464 -79 c0 -5 -20 -18 -45 -29 -25 -11 -66 -33
-89 -50 -36 -24 -46 -27 -55 -16 -15 18 -5 25 94 74 77 38 95 42 95 21z m425
-4 c29 -28 31 -51 9 -83 -31 -45 -114 -15 -114 42 0 25 41 66 67 66 8 0 25
-11 38 -25z m379 -2 c36 -22 45 -34 46 -55 0 -24 4 -28 30 -28 l30 0 0 -512
-1 -513 -24 -12 c-22 -10 -25 -9 -25 9 0 10 -4 16 -10 13 -5 -3 -10 -1 -10 4
0 6 5 11 10 11 6 0 10 9 10 20 0 19 -7 20 -114 20 -95 0 -114 -2 -112 -15 3
-24 11 -26 80 -29 36 -1 69 -5 72 -9 4 -4 -13 -6 -37 -6 -98 3 -109 0 -119
-26 -6 -16 -14 -23 -25 -19 -13 5 -15 69 -15 535 l0 529 23 -3 c18 -2 23 4 25
31 2 17 9 32 15 32 7 0 28 11 47 25 44 31 50 31 104 -2z m350 6 c67 -53 -11
-143 -82 -93 -22 15 -30 57 -14 80 9 13 43 33 58 34 6 0 23 -9 38 -21z m524
-57 c28 -19 52 -41 52 -49 0 -18 -13 -16 -41 6 -13 10 -50 33 -81 51 -32 17
-58 35 -58 39 0 28 37 15 128 -47z m262 3 c-29 -30 -56 -52 -59 -50 -6 7 90
105 103 105 6 0 -14 -25 -44 -55z m-1740 -11 c11 -12 11 -18 -2 -31 -19 -18
-38 -10 -38 16 0 33 20 40 40 15z m1135 -9 c0 -13 -8 -21 -22 -23 -19 -3 -23
1 -23 23 0 22 4 26 23 23 14 -2 22 -10 22 -23z m45 -20 c0 -8 -4 -15 -9 -15
-13 0 -22 16 -14 24 11 11 23 6 23 -9z m-1240 -10 c0 -8 -7 -15 -15 -15 -8 0
-15 7 -15 15 0 8 7 15 15 15 8 0 15 -7 15 -15z m1285 -4 c7 -12 -12 -24 -25
-16 -11 7 -4 25 10 25 5 0 11 -4 15 -9z m-1335 -16 c0 -8 -7 -15 -15 -15 -16
0 -20 12 -8 23 11 12 23 8 23 -8z m1370 -16 c0 -5 -4 -9 -10 -9 -5 0 -10 7
-10 16 0 8 5 12 10 9 6 -3 10 -10 10 -16z m-1702 -1 c17 -17 15 -43 -4 -59
-31 -26 -70 25 -44 56 15 18 32 19 48 3z m2023 2 c23 -13 25 -43 3 -61 -31
-26 -70 25 -44 56 15 18 16 18 41 5z m-1740 -15 c-1 -15 -24 -12 -29 3 -3 9 2
13 12 10 10 -1 17 -7 17 -13z m1459 -5 c0 -5 -4 -10 -9 -10 -6 0 -13 5 -16 10
-3 6 1 10 9 10 9 0 16 -4 16 -10z m-1500 -14 c0 -8 -4 -17 -9 -21 -12 -7 -24
12 -16 25 9 15 25 12 25 -4z m1545 -5 c7 -12 -12 -24 -25 -16 -11 7 -4 25 10
25 5 0 11 -4 15 -9z m-1283 -14 c-13 -16 -111 -52 -119 -43 -3 3 18 17 48 31
61 28 88 33 71 12z m1098 -35 c88 -40 262 -174 247 -189 -4 -3 -15 2 -25 13
-46 48 -177 138 -248 169 -43 19 -80 39 -82 45 -4 12 12 6 108 -38z m-1670 25
c0 -15 -118 -137 -132 -137 -13 0 -10 9 19 48 30 40 93 101 106 102 4 0 7 -6
7 -13z m268 -5 c2 -7 -3 -12 -12 -12 -9 0 -16 7 -16 16 0 17 22 14 28 -4z
m444 -234 c2 -190 6 -252 16 -256 9 -3 12 35 12 168 l0 171 23 -7 c72 -23 92
-33 95 -47 3 -13 -4 -17 -32 -17 l-36 0 0 -305 0 -305 35 0 c19 0 35 -4 35
-10 0 -5 -11 -10 -24 -10 -58 0 -85 -12 -89 -39 -2 -14 -5 61 -6 167 0 120 -5
192 -11 192 -6 0 -11 -79 -12 -212 -2 -219 -3 -214 -17 52 l-8 155 -2 -212
c-1 -182 -3 -213 -16 -213 -13 0 -15 32 -15 230 0 196 2 231 15 236 13 5 15
44 15 260 0 160 4 254 10 254 6 0 11 -95 12 -252z m718 1 c0 -228 2 -253 18
-265 15 -11 17 -32 17 -193 0 -131 -3 -183 -12 -192 -11 -10 -13 22 -13 164 0
111 -4 177 -10 177 -6 0 -11 -64 -12 -167 -1 -150 -2 -159 -9 -83 -4 47 -7
122 -8 168 -1 66 -4 82 -16 82 -13 0 -15 -24 -15 -158 l0 -157 -55 -3 c-44 -2
-55 0 -55 13 0 11 10 15 35 15 28 0 35 4 35 20 0 16 -7 20 -37 22 l-38 1 38 4
c37 4 37 5 37 49 0 44 0 44 -35 44 -19 0 -35 5 -35 10 0 6 16 10 35 10 l35 0
0 145 0 145 -35 0 c-19 0 -35 5 -35 10 0 6 16 10 35 10 39 0 41 5 29 94 -6 43
-9 46 -35 46 -22 0 -29 5 -29 20 0 15 12 23 52 35 28 8 53 15 55 15 2 0 3 -76
3 -170 0 -163 1 -170 20 -170 19 0 20 7 20 255 0 163 4 255 10 255 6 0 10 -90
10 -251z m460 225 c0 -8 -4 -12 -10 -9 -5 3 -10 10 -10 16 0 5 5 9 10 9 6 0
10 -7 10 -16z m274 -8 c15 -13 36 -21 46 -19 21 5 33 -21 24 -50 -6 -20 -7
-20 -20 -2 -14 18 -14 18 -14 -1 0 -14 -5 -10 -16 13 -9 18 -27 39 -40 48 -23
15 -33 35 -16 35 4 -1 20 -11 36 -24z m-1944 -11 c0 -8 -4 -15 -9 -15 -13 0
-22 16 -14 24 11 11 23 6 23 -9z m1710 0 c0 -8 -4 -15 -10 -15 -5 0 -10 7 -10
15 0 8 5 15 10 15 6 0 10 -7 10 -15z m-1510 -25 c0 -27 -19 -35 -38 -17 -12
13 -13 19 -3 31 16 19 41 10 41 -14z m438 13 c-2 -10 -10 -18 -18 -18 -8 0
-16 8 -18 18 -2 12 3 17 18 17 15 0 20 -5 18 -17z m440 0 c-2 -10 -10 -18 -18
-18 -8 0 -16 8 -18 18 -2 12 3 17 18 17 15 0 20 -5 18 -17z m1189 -8 c13 -9
20 -22 16 -30 -3 -11 4 -17 25 -21 22 -4 32 -13 37 -32 4 -16 2 -28 -4 -30
-15 -5 -14 -59 0 -64 20 -7 -9 -48 -32 -48 -12 0 -23 -8 -26 -18 -3 -14 -15
-18 -55 -19 -31 0 -54 -6 -59 -14 -6 -10 -9 -10 -9 -2 0 7 -7 10 -17 6 -11 -4
-14 -3 -9 6 9 14 -20 40 -45 41 -21 0 -33 28 -20 44 11 14 3 58 -13 68 -17 11
10 56 36 60 13 2 24 11 27 23 5 29 21 36 62 29 22 -3 40 -1 44 5 8 15 17 14
42 -4z m-2307 -10 c0 -8 -4 -15 -9 -15 -13 0 -22 16 -14 24 11 11 23 6 23 -9z
m1790 0 c0 -8 -4 -15 -9 -15 -13 0 -22 16 -14 24 11 11 23 6 23 -9z m-1830
-30 c0 -8 -7 -15 -15 -15 -16 0 -20 12 -8 23 11 12 23 8 23 -8z m1864 -6 c-8
-14 -24 -10 -24 6 0 9 6 12 15 9 8 -4 12 -10 9 -15z m-1725 -63 c-37 -33 -69
-69 -73 -79 -7 -20 -37 -20 -44 0 -2 7 5 16 15 20 10 4 49 35 87 70 39 34 72
60 75 57 3 -4 -24 -34 -60 -68z m-171 32 c-6 -18 -28 -21 -28 -4 0 9 7 16 16
16 9 0 14 -5 12 -12z m1934 -3 c0 -5 -5 -11 -11 -13 -6 -2 -11 4 -11 13 0 9 5
15 11 13 6 -2 11 -8 11 -13z m-1512 -17 c15 -13 42 -31 59 -40 32 -17 43 -48
17 -48 -8 0 -16 4 -18 8 -7 17 -81 52 -111 52 -27 0 -40 -9 -79 -59 -60 -73
-63 -104 -4 -37 46 53 74 49 30 -4 -15 -17 -23 -34 -19 -38 4 -4 33 -7 64 -7
52 1 62 4 102 38 36 31 45 35 47 22 2 -10 -13 -35 -34 -56 l-38 -39 -98 0 -98
0 0 -110 c0 -91 -3 -110 -15 -110 -11 0 -15 12 -15 44 l0 45 -44 -15 c-35 -12
-45 -21 -50 -45 -8 -42 -26 -36 -26 10 0 38 1 39 60 61 l60 22 -2 87 c-3 87
-3 88 29 120 18 18 49 52 69 77 42 51 71 56 114 22z m1126 14 c31 -21 134
-147 134 -164 0 -10 5 -16 10 -13 6 4 10 -5 10 -19 0 -14 -4 -26 -10 -26 -5 0
-10 -21 -10 -48 l0 -47 66 -24 65 -23 -3 -37 c-3 -41 -22 -49 -26 -10 -2 21
-12 28 -52 41 l-50 16 0 -44 c0 -24 -4 -44 -9 -44 -8 0 -21 103 -21 178 0 53
-14 53 -58 1 l-34 -39 46 -61 c75 -99 53 -107 -27 -9 l-44 55 39 48 40 47 -74
0 -74 0 -44 45 c-30 30 -41 48 -34 55 7 7 21 -1 44 -25 33 -34 36 -35 109 -35
l74 0 -22 24 c-14 15 -19 26 -12 30 6 4 24 -8 40 -26 27 -29 30 -31 31 -12 0
11 -16 35 -35 54 -19 19 -35 39 -35 45 0 15 -38 50 -46 43 -7 -7 24 -70 39
-80 6 -3 -5 -15 -24 -27 -37 -23 -59 -27 -59 -11 0 6 6 10 14 10 26 0 38 25
25 54 -14 29 -28 29 -87 -2 -50 -26 -52 -26 -52 -8 0 8 23 33 51 55 49 39 81
49 105 33z m-1586 -30 c0 -13 -12 -22 -22 -16 -10 6 -1 24 13 24 5 0 9 -4 9
-8z m2010 -7 c0 -8 -4 -15 -9 -15 -13 0 -22 16 -14 24 11 11 23 6 23 -9z
m-2046 -40 c-4 -8 -10 -15 -15 -15 -5 0 -9 7 -9 15 0 8 7 15 15 15 9 0 12 -6
9 -15z m2076 0 c0 -8 -4 -15 -10 -15 -5 0 -10 7 -10 15 0 8 5 15 10 15 6 0 10
-7 10 -15z m-155 -25 c3 -5 -1 -10 -9 -10 -9 0 -16 5 -16 10 0 6 4 10 9 10 6
0 13 -4 16 -10z m-1955 -10 c0 -5 -7 -10 -15 -10 -8 0 -15 5 -15 10 0 6 7 10
15 10 8 0 15 -4 15 -10z m2140 0 c0 -5 -4 -10 -10 -10 -5 0 -10 5 -10 10 0 6
5 10 10 10 6 0 10 -4 10 -10z m-2412 -16 c62 -26 115 -83 132 -145 l9 -29
-216 0 -215 0 7 28 c31 124 167 195 283 146z m1132 -9 c0 -20 -5 -25 -25 -25
-20 0 -25 5 -25 25 0 20 5 25 25 25 20 0 25 -5 25 -25z m450 0 c0 -20 -5 -25
-25 -25 -20 0 -25 5 -25 25 0 20 5 25 25 25 20 0 25 -5 25 -25z m-785 5 c-7
-12 -52 -14 -59 -2 -2 4 11 9 30 10 23 2 33 -1 29 -8z m1460 -18 c-8 -8 -25
10 -19 20 4 6 9 5 15 -3 4 -7 6 -15 4 -17z m-2036 -32 c-17 -27 -35 -50 -41
-50 -6 0 -3 11 6 25 9 14 23 36 32 50 31 48 34 25 3 -25z m201 40 c0 -5 -4
-10 -10 -10 -5 0 -10 5 -10 10 0 6 5 10 10 10 6 0 10 -4 10 -10z m2030 -30
c35 -69 22 -67 -19 3 -13 20 -18 37 -12 37 6 0 20 -18 31 -40z m-2060 -9 c0
-6 -4 -13 -10 -16 -5 -3 -10 1 -10 9 0 9 5 16 10 16 6 0 10 -4 10 -9z m1898
-2 c-2 -6 -8 -10 -13 -10 -5 0 -11 4 -13 10 -2 6 4 11 13 11 9 0 15 -5 13 -11z
m-1153 -19 c4 -6 -9 -10 -32 -10 -28 0 -34 3 -23 10 20 13 47 13 55 0z m455
-2 c0 -5 -13 -8 -30 -8 -16 0 -30 3 -30 8 0 4 14 7 30 7 17 0 30 -3 30 -7z
m-1230 -23 c0 -8 -4 -15 -10 -15 -5 0 -10 7 -10 15 0 8 5 15 10 15 6 0 10 -7
10 -15z m1955 5 c3 -5 -1 -10 -9 -10 -9 0 -16 5 -16 10 0 6 4 10 9 10 6 0 13
-4 16 -10z m-1182 -25 c-4 -15 -56 -12 -61 3 -3 10 5 13 29 10 19 -2 33 -7 32
-13z m-807 -32 c-10 -10 -19 5 -10 18 6 11 8 11 12 0 2 -7 1 -15 -2 -18z
m2682 -82 c2 -69 -1 -97 -10 -103 -10 -6 -10 -8 0 -8 20 0 15 -58 -6 -69 -10
-6 -51 -11 -90 -13 -40 -2 -72 -7 -72 -13 0 -5 -5 -3 -11 5 -8 12 -9 7 -6 -17
3 -29 1 -33 -20 -33 -15 0 -23 6 -23 18 -1 16 -1 16 -11 0 -7 -13 -23 -18 -58
-18 -45 0 -48 2 -44 23 4 22 3 22 -94 21 -54 -1 -92 0 -85 3 6 3 10 9 6 14 -3
5 96 9 245 9 137 0 251 3 253 8 2 4 1 59 -2 122 l-5 115 -245 0 -245 0 -3
-112 c-2 -72 -7 -113 -13 -113 -7 0 -9 10 -5 24 3 14 2 28 -4 31 -11 7 -14
163 -4 189 6 15 37 16 278 14 l271 -3 3 -94z m-2548 75 c0 -8 -5 -18 -11 -22
-14 -8 -33 11 -25 25 10 16 36 13 36 -3z m1780 -7 c0 -25 -33 -22 -38 4 -2 12
3 17 17 17 15 0 21 -6 21 -21z m-1107 -4 c1 -5 -13 -11 -30 -13 -31 -3 -42 6
-26 22 10 10 53 3 56 -9z m457 0 c0 -10 -10 -15 -30 -15 -20 0 -30 5 -30 15 0
10 10 15 30 15 20 0 30 -5 30 -15z m-1396 -49 c7 -27 -1 -56 -15 -56 -5 0 -9
15 -9 34 0 19 -4 38 -10 41 -5 3 -10 11 -10 16 0 19 38 -11 44 -35z m-512 22
c-7 -7 -12 -34 -12 -60 0 -50 -13 -64 -24 -25 -13 51 4 97 37 97 8 0 7 -4 -1
-12z m138 -68 c0 -57 -1 -60 -25 -60 -24 0 -25 3 -25 60 0 57 1 60 25 60 24 0
25 -3 25 -60z m86 44 c-3 -9 -6 -36 -6 -60 0 -40 -2 -44 -25 -44 -24 0 -25 3
-25 60 l0 60 31 0 c24 0 30 -3 25 -16z m84 -44 c0 -57 -1 -60 -25 -60 -24 0
-25 3 -25 60 0 57 1 60 25 60 24 0 25 -3 25 -60z m76 3 c-1 -52 -3 -58 -23
-61 -22 -3 -23 0 -23 57 0 58 1 61 24 61 23 0 24 -3 22 -57z m1065 42 c0 -5
-7 -12 -16 -13 -23 -5 -47 6 -40 19 8 13 56 8 56 -6z m459 -1 c0 -2 -13 -4
-30 -4 -16 0 -30 4 -30 8 0 5 14 7 30 4 17 -2 30 -6 30 -8z m-1840 -24 c0 -25
-4 -30 -25 -30 -21 0 -25 5 -25 30 0 25 4 30 25 30 21 0 25 -5 25 -30z m390 0
c0 -25 -4 -30 -25 -30 -21 0 -25 5 -25 30 0 25 4 30 25 30 21 0 25 -5 25 -30z
m2810 20 c0 -6 -78 -10 -215 -10 -137 0 -215 4 -215 10 0 6 78 10 215 10 137
0 215 -4 215 -10z m-6 -39 c8 -12 -59 -18 -256 -20 -146 -2 -168 0 -168 14 0
13 27 15 209 15 116 0 212 -4 215 -9z m-2050 -391 l-7 -55 -8 40 c-4 22 -8
111 -8 198 -1 122 -4 158 -13 155 -10 -4 -14 -52 -16 -186 -1 -110 -6 -182
-12 -182 -6 0 -10 71 -10 185 0 117 -4 185 -10 185 -27 0 -5 19 38 32 l47 15
3 -166 c2 -91 0 -191 -4 -221z m236 380 c0 -5 -13 -10 -30 -10 -16 0 -30 5
-30 10 0 6 14 10 30 10 17 0 30 -4 30 -10z m460 0 c0 -5 -13 -10 -30 -10 -16
0 -30 5 -30 10 0 6 14 10 30 10 17 0 30 -4 30 -10z m260 -30 c0 -5 -4 -12 -10
-15 -6 -4 -10 -78 -10 -191 0 -101 -4 -184 -9 -184 -13 0 -21 91 -21 243 0 84
-4 137 -10 137 -6 0 -10 -30 -11 -67 -1 -38 -4 -106 -8 -153 -7 -74 -8 -62 -9
92 l-2 177 45 -16 c25 -8 45 -19 45 -23z m-710 -20 c0 -5 -16 -10 -35 -10 -19
0 -35 5 -35 10 0 6 16 10 35 10 19 0 35 -4 35 -10z m450 0 c0 -5 -13 -10 -30
-10 -16 0 -30 5 -30 10 0 6 14 10 30 10 17 0 30 -4 30 -10z m1358 5 c-8 -8
-428 -11 -428 -3 0 4 98 8 217 8 119 0 214 -2 211 -5z m-2160 -98 c-1 -34 -3
-54 -5 -44 -3 9 -11 17 -19 17 -10 0 -14 -13 -14 -47 0 -27 -3 -86 -8 -133 -7
-84 -7 -83 -12 70 l-5 155 -25 2 c-14 2 -100 6 -192 9 -129 5 -168 10 -168 20
0 15 156 22 347 16 l103 -3 -2 -62z m1410 63 c95 0 122 -3 122 -13 0 -11 -36
-15 -162 -21 -90 -4 -178 -9 -195 -12 l-33 -6 0 -114 c0 -64 -4 -115 -10 -119
-6 -4 -10 30 -10 94 0 94 -1 101 -20 101 -17 0 -20 7 -20 45 l0 44 83 4 c45 2
91 2 102 0 11 -1 75 -3 143 -3z m-2409 -27 c54 -17 141 -85 141 -110 0 -28
-33 -20 -68 16 -22 23 -58 46 -89 57 -37 13 -53 24 -53 36 0 22 0 22 69 1z
m1341 7 c0 -5 -13 -10 -30 -10 -16 0 -30 5 -30 10 0 6 14 10 30 10 17 0 30 -4
30 -10z m460 0 c0 -5 -13 -10 -30 -10 -16 0 -30 5 -30 10 0 6 14 10 30 10 17
0 30 -4 30 -10z m1350 0 c0 -6 -77 -10 -210 -10 -133 0 -210 4 -210 10 0 6 77
10 210 10 133 0 210 -4 210 -10z m-2920 -25 c17 -19 27 -22 41 -15 38 21 72
-19 43 -51 -27 -29 -30 -28 -92 51 -16 19 -32 26 -78 31 l-59 6 61 2 c52 1 64
-2 84 -24z m185 -15 c0 -22 -39 -19 -43 3 -3 15 1 18 20 15 12 -2 23 -10 23
-18z m357 -1 c2 -6 30 -16 63 -21 33 -5 61 -11 64 -13 12 -12 -10 -12 -67 -1
-62 14 -62 14 -62 -10 0 -21 6 -24 60 -30 33 -4 63 -11 66 -16 4 -6 -5 -8 -22
-5 -100 19 -104 19 -104 -2 0 -16 9 -21 48 -27 26 -4 56 -10 67 -15 18 -7 18
-8 -5 -8 -14 0 -44 4 -67 8 l-43 8 -1 -106 c-1 -58 -1 -109 0 -113 0 -5 -4 -8
-10 -8 -5 0 -7 -4 -4 -10 3 -5 1 -10 -4 -10 -6 0 -11 9 -11 20 0 17 -7 20 -43
20 -24 0 -48 -5 -55 -12 -9 -9 -16 -8 -29 5 -14 14 -17 45 -21 187 l-5 170 91
0 c58 0 92 -4 94 -11z m1708 -146 c0 -87 -3 -168 -6 -180 -6 -22 -46 -40 -52
-23 -6 16 -62 11 -80 -7 -16 -16 -17 -12 -20 53 l-3 69 -67 -6 c-37 -3 -69 -4
-71 -3 -6 5 40 13 89 17 48 3 48 3 41 83 -1 7 -16 8 -48 3 -67 -11 -85 -11
-78 1 3 6 19 10 34 10 58 0 91 12 91 32 0 16 -5 19 -27 14 -81 -14 -103 -16
-103 -7 0 5 29 13 65 16 56 6 65 10 65 27 0 18 -5 19 -52 13 -29 -3 -61 -9
-70 -11 -10 -3 -18 -1 -18 5 0 5 24 13 54 16 29 4 64 13 77 20 13 7 59 13 102
14 l77 1 0 -157z m847 141 c8 -21 -13 -42 -28 -27 -13 13 -5 43 11 43 6 0 13
-7 17 -16z m-1977 -4 c0 -5 -16 -10 -35 -10 -19 0 -35 5 -35 10 0 6 16 10 35
10 19 0 35 -4 35 -10z m-1442 -60 c18 0 35 7 40 16 8 15 12 15 41 -1 20 -10
31 -22 27 -30 -7 -19 26 -45 50 -39 16 4 22 -1 31 -29 10 -32 9 -36 -11 -41
-40 -11 -57 -6 -81 23 -53 62 -128 65 -184 7 -34 -35 -37 -54 -19 -158 5 -24
3 -26 -17 -18 -13 5 -25 7 -28 4 -3 -3 -15 7 -27 23 -19 24 -20 29 -6 39 21
15 21 63 0 78 -13 10 -14 16 -3 39 7 16 19 27 28 25 22 -5 49 21 44 41 -3 11
7 22 29 33 28 14 35 14 44 2 6 -8 25 -14 42 -14z m2169 -77 c-2 -21 -4 -4 -4
37 0 41 2 58 4 38 2 -21 2 -55 0 -75z m-737 87 c0 -5 -13 -10 -30 -10 -16 0
-30 5 -30 10 0 6 14 10 30 10 17 0 30 -4 30 -10z m460 0 c0 -5 -13 -10 -30
-10 -16 0 -30 5 -30 10 0 6 14 10 30 10 17 0 30 -4 30 -10z m-803 -92 c-2 -18
-4 -6 -4 27 0 33 2 48 4 33 2 -15 2 -42 0 -60z m2197 17 c50 -46 57 -57 46
-70 -19 -23 -30 -18 -45 18 -18 44 -56 77 -96 84 -54 8 -59 23 -8 23 39 -1 50
-7 103 -55z m-1866 18 c-10 -2 -26 -2 -35 0 -10 3 -2 5 17 5 19 0 27 -2 18 -5z
m-758 -33 c0 -6 -38 -10 -95 -10 -88 0 -95 -1 -95 -20 0 -17 -7 -20 -49 -20
-47 0 -50 -2 -53 -27 -2 -16 -8 -27 -15 -25 -7 1 -13 -2 -13 -7 0 -4 -11 -6
-25 -3 -22 4 -25 10 -25 43 l0 39 85 0 c78 0 85 2 85 20 0 19 7 20 100 20 60
0 100 -4 100 -10z m2137 -10 c5 -18 14 -20 84 -20 l79 0 0 -40 c0 -25 -5 -40
-12 -41 -83 -7 -78 -9 -78 27 0 34 -1 34 -45 34 -38 0 -45 3 -45 20 0 19 -7
20 -90 20 -53 0 -90 4 -90 10 0 6 39 10 96 10 87 0 96 -2 101 -20z m-2761 -5
c16 -13 16 -14 1 -9 -9 3 -29 3 -44 -1 l-27 -6 54 -49 c55 -48 55 -48 36 -69
-13 -14 -31 -21 -58 -21 -91 0 -119 116 -38 157 33 17 52 16 76 -2z m3044 -10
c15 -18 5 -35 -20 -35 -10 0 -22 5 -25 10 -7 11 12 40 25 40 4 0 13 -7 20 -15z
m-2147 -12 c-7 -2 -21 -2 -30 0 -10 3 -4 5 12 5 17 0 24 -2 18 -5z m1456 3
c-2 -2 -31 -6 -64 -9 -36 -3 -52 -2 -40 3 19 8 113 14 104 6z m-2219 -40 c0
-8 -5 -27 -11 -43 -8 -23 -8 -26 2 -15 17 16 26 15 26 -1 0 -21 -36 -13 -53
12 -15 21 -15 22 2 19 14 -2 19 3 18 20 0 12 3 22 8 22 4 0 8 -6 8 -14z m1540
6 c0 -5 -7 -9 -15 -9 -8 0 -15 4 -15 9 0 4 7 8 15 8 8 0 15 -4 15 -8z m-1090
-72 c0 -33 -3 -60 -7 -61 -5 0 -18 -2 -30 -5 -17 -3 -23 2 -28 26 -9 41 -35
39 -36 -2 l-1 -33 -9 33 c-5 17 -16 32 -24 32 -10 0 -16 -11 -17 -32 l-1 -33
-4 33 c-6 42 -33 44 -33 2 0 -16 -4 -30 -10 -30 -6 0 -10 28 -10 65 l0 65 105
0 105 0 0 -60z m355 50 c13 -6 2 -7 -30 -3 -27 3 -52 7 -54 9 -9 8 65 2 84 -6z
m1854 -47 c0 -45 -2 -53 -9 -35 -11 26 -39 30 -41 5 -1 -17 -2 -17 -6 0 -7 28
-37 16 -44 -18 l-7 -30 -1 33 c-1 35 -31 47 -31 12 0 -16 -7 -20 -30 -20 -30
0 -30 1 -30 55 l0 55 100 0 100 0 -1 -57z m631 12 c0 -13 -22 -15 -135 -15
l-135 0 0 -39 c0 -21 -6 -43 -12 -48 -11 -8 -48 -10 -80 -4 -5 0 -8 21 -8 46
0 51 -19 62 -21 13 l-1 -33 -8 30 c-18 70 -32 65 195 65 176 0 205 -2 205 -15z
m-1073 -11 c-3 -3 -12 -4 -19 -1 -8 3 -5 6 6 6 11 1 17 -2 13 -5z m921 -51
c-4 -20 -58 -30 -58 -11 0 9 -3 9 -10 -2 -8 -12 -10 -11 -10 8 0 19 5 22 41
22 32 0 40 -3 37 -17z m-1421 1 c-3 -3 -12 -4 -19 -1 -8 3 -5 6 6 6 11 1 17
-2 13 -5z m1563 -3 c0 -5 -13 -11 -30 -14 -21 -5 -30 -12 -30 -27 0 -23 -15
-27 -23 -6 -9 24 22 56 54 56 16 0 29 -4 29 -9z m-3235 -62 c10 -15 -1 -23
-20 -15 -9 3 -13 10 -10 16 8 13 22 13 30 -1z m-335 -179 c0 -5 -9 -10 -20
-10 -11 0 -20 5 -20 10 0 6 9 10 20 10 11 0 20 -4 20 -10z m538 -15 c28 -13
52 -29 52 -34 0 -6 -14 -30 -31 -55 l-31 -44 -36 24 c-88 60 -192 1 -192 -109
0 -51 24 -88 70 -107 38 -16 105 -8 131 16 22 20 24 18 71 -55 21 -33 21 -34
2 -48 -25 -18 -110 -43 -148 -43 -16 0 -56 7 -88 16 -133 38 -205 196 -147
324 27 60 54 88 114 116 70 33 161 33 233 -1z m322 15 c23 -7 36 -7 38 0 2 5
24 10 49 10 52 0 47 4 181 -158 l77 -94 6 113 c4 63 7 120 8 127 1 8 20 12 61
12 l60 0 0 -235 0 -235 -54 0 -54 0 -92 115 c-51 63 -97 115 -102 115 -4 0 -8
-15 -8 -32 -1 -45 -33 -113 -71 -147 -19 -18 -57 -36 -95 -47 -61 -16 -67 -16
-129 1 -51 13 -75 27 -105 57 -68 70 -88 173 -49 258 27 60 64 98 124 126 54
26 100 30 155 14z m940 -45 l0 -55 -75 0 -75 0 0 -180 0 -180 -60 0 -60 0 0
180 0 180 -75 0 -75 0 0 55 0 55 210 0 210 0 0 -55z m500 0 l0 -55 -160 0
-160 0 0 -35 0 -35 130 0 130 0 0 -55 0 -55 -131 0 -130 0 3 -37 3 -38 158 -3
157 -3 0 -49 0 -50 -220 0 -220 0 0 235 0 235 220 0 220 0 0 -55z m405 36 c22
-10 52 -32 68 -48 l27 -29 -39 -32 c-47 -38 -48 -38 -77 -11 -31 29 -99 36
-139 15 -84 -45 -87 -178 -5 -221 49 -25 104 -20 145 16 l35 31 40 -32 c22
-17 40 -36 40 -41 0 -24 -74 -80 -126 -95 -164 -47 -316 63 -317 230 -1 95 57
183 143 220 50 22 156 20 205 -3z m275 -71 l0 -90 95 0 95 0 0 90 0 90 60 0
60 0 2 -117 c1 -95 1 -273 -2 -340 0 -9 -19 -13 -60 -13 l-60 0 0 90 0 90 -95
0 -95 0 0 -90 0 -90 -60 0 -60 0 0 235 0 235 60 0 60 0 0 -90z m585 80 c4 -6
-5 -10 -19 -10 -14 0 -26 5 -26 10 0 6 9 10 19 10 11 0 23 -4 26 -10z m-3565
-35 c0 -8 -9 -15 -20 -15 -11 0 -20 7 -20 15 0 8 9 15 20 15 11 0 20 -7 20
-15z m3553 8 c-7 -2 -19 -2 -25 0 -7 3 -2 5 12 5 14 0 19 -2 13 -5z m10 -20
c-7 -2 -21 -2 -30 0 -10 3 -4 5 12 5 17 0 24 -2 18 -5z m-3570 -20 c-7 -2 -19
-2 -25 0 -7 3 -2 5 12 5 14 0 19 -2 13 -5z m3567 -3 c0 -5 -9 -10 -20 -10 -11
0 -20 5 -20 10 0 6 9 10 20 10 11 0 20 -4 20 -10z m-3567 -17 c-7 -2 -19 -2
-25 0 -7 3 -2 5 12 5 14 0 19 -2 13 -5z m3560 -10 c-7 -2 -19 -2 -25 0 -7 3
-2 5 12 5 14 0 19 -2 13 -5z m-3553 -7 c0 -2 -9 -6 -20 -9 -11 -3 -20 -1 -20
4 0 5 9 9 20 9 11 0 20 -2 20 -4z m3553 -13 c-7 -2 -19 -2 -25 0 -7 3 -2 5 12
5 14 0 19 -2 13 -5z m-3553 -13 c0 -5 -9 -10 -21 -10 -11 0 -17 5 -14 10 3 6
13 10 21 10 8 0 14 -4 14 -10z m3553 -7 c-7 -2 -21 -2 -30 0 -10 3 -4 5 12 5
17 0 24 -2 18 -5z m-3550 -20 c-7 -2 -21 -2 -30 0 -10 3 -4 5 12 5 17 0 24 -2
18 -5z m3557 -3 c0 -12 -8 -12 -35 0 -18 8 -17 9 8 9 15 1 27 -3 27 -9z
m-3565 -20 c-28 -12 -37 -12 -30 0 3 6 16 10 28 9 21 0 21 -1 2 -9z m3565 -6
c0 -2 -11 -4 -25 -4 -14 0 -25 4 -25 9 0 4 11 6 25 3 14 -2 25 -6 25 -8z
m-3560 -14 c-8 -5 -22 -10 -30 -10 -13 0 -13 1 0 10 8 5 22 10 30 10 13 0 13
-1 0 -10z m3543 -7 c-7 -2 -19 -2 -25 0 -7 3 -2 5 12 5 14 0 19 -2 13 -5z
m-3533 -13 c-12 -8 -12 -10 -1 -10 8 0 12 -2 10 -5 -3 -2 -16 -1 -29 2 -22 6
-23 7 -4 14 27 11 42 10 24 -1z m3533 -7 c-7 -2 -21 -2 -30 0 -10 3 -4 5 12 5
17 0 24 -2 18 -5z m-8 -23 c-12 -5 -14 -9 -6 -9 8 -1 12 -3 9 -6 -3 -3 -13 -2
-22 1 -14 5 -15 9 -4 15 7 5 20 8 28 8 10 0 8 -3 -5 -9z m-3520 -10 c-27 -12
-43 -12 -25 0 8 5 22 9 30 9 10 0 8 -3 -5 -9z m3525 -26 c0 -2 -9 -4 -20 -4
-11 0 -20 4 -20 9 0 5 9 7 20 4 11 -3 20 -7 20 -9z m-3533 0 c-3 -3 -12 -4
-19 -1 -8 3 -5 6 6 6 11 1 17 -2 13 -5z m10 -20 c-3 -3 -12 -4 -19 -1 -8 3 -5
6 6 6 11 1 17 -2 13 -5z m3513 -4 c0 -5 -9 -10 -20 -10 -11 0 -20 5 -20 10 0
6 9 10 20 10 11 0 20 -4 20 -10z m-3493 -16 c-3 -3 -12 -4 -19 -1 -8 3 -5 6 6
6 11 1 17 -2 13 -5z m3476 -21 c-7 -2 -19 -2 -25 0 -7 3 -2 5 12 5 14 0 19 -2
13 -5z m-3486 -29 c-3 -3 -12 -4 -19 -1 -8 3 -5 6 6 6 11 1 17 -2 13 -5z m10
-20 c-3 -3 -12 -4 -19 -1 -8 3 -5 6 6 6 11 1 17 -2 13 -5z m327 -170 c16 -43
13 -44 -136 -38 -140 6 -157 10 -158 42 0 9 35 12 144 12 122 0 145 -2 150
-16z m2678 -1 c24 -22 24 -73 0 -73 -10 0 -25 9 -35 20 -16 19 -29 20 -187 20
l-170 0 0 -46 c0 -37 5 -50 25 -66 48 -38 23 -118 -37 -118 -53 0 -77 84 -34
118 18 13 25 30 27 63 l4 44 -55 0 -55 0 -1 -98 c0 -54 -5 -102 -11 -108 -12
-12 -282 -8 -286 5 -1 5 61 9 138 10 127 1 140 3 139 19 -1 9 -2 53 -3 97 l-1
80 -31 0 -32 0 5 -75 c5 -80 -2 -97 -31 -71 -20 18 -57 21 -66 6 -5 -8 -11 -7
-21 1 -9 8 -35 10 -74 6 -33 -3 -60 -1 -60 3 0 5 30 10 68 12 l67 3 3 58 3 57
-96 0 -95 0 0 -135 0 -135 248 -2 247 -3 3 -37 c3 -37 4 -38 42 -38 28 0 46 7
64 25 31 31 85 34 110 6 21 -24 24 -88 4 -107 -25 -26 -71 -27 -101 -4 -15 12
-27 27 -27 33 0 9 -152 12 -621 13 -491 1 -623 4 -629 14 -5 7 -9 75 -9 152
l-2 138 291 0 290 0 0 -125 0 -125 270 0 c173 0 270 -4 270 -10 0 -5 9 -10 21
-10 17 0 20 5 17 33 l-3 32 -252 3 -253 2 0 140 0 140 -352 -2 -353 -3 -3
-222 -2 -223 27 0 c67 -1 238 -12 242 -16 3 -3 -58 -3 -135 -2 l-139 3 -3 233
-2 232 -328 -2 -327 -3 0 -50 0 -50 75 -1 c41 -1 76 -6 78 -12 2 -7 -36 -10
-111 -10 -124 1 -160 -11 -178 -60 -5 -13 -15 -22 -22 -19 -20 6 -20 36 0 44
10 3 33 18 52 32 19 14 46 26 60 26 24 0 26 4 29 53 l3 52 -91 0 c-78 0 -93
-3 -107 -20 -10 -11 -26 -20 -36 -20 -17 0 -19 5 -13 33 3 17 14 38 23 45 13
9 282 12 1267 12 1149 0 1251 -1 1268 -17z m421 -4 c-7 -27 -7 -27 -155 -31
-132 -4 -137 -3 -122 36 5 14 28 16 144 16 135 0 138 0 133 -21z m-2255 -85
c15 -11 22 -25 22 -50 l0 -34 -55 0 -55 0 0 34 c0 23 7 38 23 49 28 20 38 20
65 1z m1672 -4 c11 -11 20 -26 20 -33 0 -7 13 -18 30 -24 61 -23 47 -115 -19
-121 -34 -4 -71 19 -71 44 0 7 -13 22 -30 34 -55 39 -31 115 38 119 6 1 21 -8
32 -19z m-2620 -103 c21 -48 45 -98 54 -112 9 -13 16 -31 16 -40 0 -8 4 -15 8
-15 5 0 9 -6 9 -14 0 -8 -6 -12 -14 -9 -7 3 -11 9 -8 13 3 5 0 12 -6 16 -7 4
-10 3 -6 -2 3 -5 -1 -20 -9 -34 -14 -23 -14 -23 -9 -3 5 19 3 22 -11 16 -12
-4 -15 -3 -10 5 4 7 3 12 -1 12 -11 0 -87 142 -108 200 -18 51 -13 62 27 57
28 -3 34 -10 68 -90z m200 69 c-25 -7 -60 -21 -79 -31 -33 -17 -35 -17 -48 1
-28 38 -18 44 80 43 91 -1 92 -1 47 -13z m2750 10 c0 -9 -23 -66 -26 -66 -9 0
-124 60 -124 65 0 3 34 5 75 5 41 0 75 -2 75 -4z m-2118 -43 l3 -38 78 -3 77
-3 0 41 0 40 40 0 40 0 0 -164 c0 -90 -3 -178 -6 -195 l-7 -31 -131 0 c-110 1
-138 4 -173 21 l-43 21 0 174 0 174 59 0 60 0 3 -37z m2246 16 l31 -10 -20
-47 c-11 -26 -22 -48 -23 -50 -2 -1 -16 3 -30 10 -28 12 -29 22 -6 83 11 29 8
28 48 14z m-2578 -64 c15 -18 100 -21 117 -4 15 15 33 3 33 -22 0 -20 -24 -26
-35 -9 -3 6 -27 10 -51 10 -35 0 -50 -5 -64 -22 -15 -19 -22 -21 -37 -12 -23
14 -28 41 -13 59 16 19 34 19 50 0z m2389 -31 c4 -4 -88 -174 -95 -174 -3 0
-15 7 -29 16 l-23 15 41 83 c42 82 42 82 72 73 17 -6 32 -11 34 -13z m-2666
-52 c48 -86 98 -157 145 -207 49 -52 61 -71 39 -62 -10 3 -17 2 -17 -4 0 -6
-4 -8 -9 -4 -5 3 -12 1 -16 -5 -4 -6 -11 -8 -16 -4 -5 3 -7 10 -3 15 3 5 9 7
14 4 4 -3 13 1 18 8 9 10 4 12 -22 9 -22 -3 -36 2 -47 15 -13 17 -13 17 6 3
20 -15 20 -14 1 8 -11 12 -26 22 -34 22 -9 0 -13 2 -10 5 3 3 -9 21 -27 39
-39 42 -125 178 -125 199 0 14 15 20 55 26 6 0 27 -29 48 -67z m2809 9 c9 -8
-32 -95 -61 -131 l-20 -25 -10 28 c-11 29 -24 38 -14 10 5 -14 3 -16 -7 -6
-10 9 -5 25 24 78 32 57 40 65 59 59 12 -3 25 -9 29 -13z m-2404 -88 l-2 -78
-3 72 -4 72 -37 4 -37 4 43 1 42 2 -2 -77z m-89 31 c25 -32 26 -55 6 -94 -13
-25 -22 -30 -54 -30 -72 0 -101 80 -47 127 36 30 70 29 95 -3z m2205 -93 c23
-25 21 -28 -36 -89 -50 -54 -77 -75 -63 -51 5 8 0 7 -12 -4 -11 -9 -24 -14
-28 -10 -5 5 -4 1 3 -9 10 -12 10 -18 1 -24 -8 -5 -9 -3 -4 6 6 10 4 12 -8 7
-12 -4 -17 -1 -18 11 0 10 -3 12 -6 5 -2 -7 -9 -13 -14 -13 -10 0 152 190 162
190 3 0 14 -9 23 -19z m-1004 -41 c17 -17 36 -20 137 -23 l118 -3 -122 -2
c-72 -1 -123 -6 -123 -12 0 -19 -50 -23 -70 -5 -13 12 -27 15 -44 11 -14 -3
-28 -2 -31 4 -4 6 7 10 27 10 21 0 40 7 51 20 21 25 32 25 57 0z m628 -32 c35
-35 -11 -82 -53 -54 -14 9 -31 16 -40 16 -8 0 -15 5 -15 10 0 6 8 10 19 10 10
0 24 7 31 15 15 18 42 19 58 3z m-846 -28 c-1 -14 -5 -55 -8 -92 l-7 -68 126
0 c69 0 128 -3 130 -7 3 -5 -53 -7 -124 -5 l-129 3 -2 -33 -1 -33 -4 33 -4 32
-82 2 -82 2 83 3 82 4 0 67 c0 38 -5 73 -11 79 -16 16 -3 45 18 41 12 -2 17
-11 15 -28z m-366 -36 c-5 -13 -10 -14 -18 -6 -6 6 -8 18 -4 28 5 13 10 14 18
6 6 -6 8 -18 4 -28z m242 8 c4 -26 -22 -40 -42 -23 -8 7 -36 11 -63 9 l-48 -3
-3 -57 c-4 -71 -22 -78 -22 -9 0 27 -3 56 -6 65 -5 14 4 16 64 16 54 0 71 3
76 16 9 22 40 13 44 -14z m735 21 c-51 -2 -136 -2 -190 0 -54 1 -12 3 92 3
105 0 149 -2 98 -3z m-9 -65 c8 -14 7 -22 -6 -35 -17 -16 -19 -16 -41 5 -23
21 -30 22 -256 22 -152 0 -230 3 -226 10 4 7 87 8 239 3 177 -5 235 -3 240 6
10 16 36 10 50 -11z m-986 -84 c4 -26 -26 -40 -45 -21 -8 7 -11 21 -7 31 9 24
48 17 52 -10z m902 6 c0 -6 -35 -10 -85 -10 -50 0 -85 4 -85 10 0 6 35 10 85
10 50 0 85 -4 85 -10z m90 -24 c0 -2 -8 -10 -17 -17 -16 -13 -17 -12 -4 4 13
16 21 21 21 13z m-841 -32 c23 -29 21 -75 -3 -100 -19 -18 -73 -27 -81 -13 -4
5 -1 9 6 9 7 0 9 3 6 6 -4 4 -13 1 -21 -5 -13 -11 -15 -9 -11 9 3 15 0 20 -9
17 -7 -3 -13 1 -13 9 0 7 4 11 9 8 12 -7 10 10 -2 22 -7 7 -4 19 10 37 29 37
80 37 109 1z m690 -2 c12 -22 -3 -42 -31 -42 -24 0 -34 26 -18 45 17 20 37 19
49 -3z m111 -11 c0 -26 -17 -36 -35 -21 -18 15 -8 40 16 40 12 0 19 -7 19 -19z
m-275 -16 c31 -31 31 -49 0 -80 -30 -31 -40 -31 -71 0 -29 29 -26 58 8 88 27
23 34 22 63 -8z m212 9 c-3 -3 -12 -4 -19 -1 -8 3 -5 6 6 6 11 1 17 -2 13 -5z
m-478 -51 c32 -40 17 -80 -34 -89 -54 -10 -83 46 -49 94 21 30 58 28 83 -5z
m-239 -148 c133 -21 286 -19 425 5 134 23 138 23 131 11 -4 -5 -50 -17 -104
-28 -187 -35 -594 -13 -609 34 -3 9 4 10 29 2 18 -5 76 -16 128 -24z m609
-128 c1 -5 -3 -5 -9 -2 -5 3 -10 1 -10 -6 0 -7 -2 -10 -5 -7 -4 3 -3 18 1 34
6 25 8 26 15 9 4 -11 8 -24 8 -28z m-72 -14 c-3 -10 -5 -4 -5 12 0 17 2 24 5
18 2 -7 2 -21 0 -30z m20 5 c-3 -8 -6 -5 -6 6 -1 11 2 17 5 13 3 -3 4 -12 1
-19z m-630 -20 c-3 -7 -5 -2 -5 12 0 14 2 19 5 13 2 -7 2 -19 0 -25z m70 0
c-3 -7 -5 -2 -5 12 0 14 2 19 5 13 2 -7 2 -19 0 -25z m400 -5 c-3 -10 -5 -4
-5 12 0 17 2 24 5 18 2 -7 2 -21 0 -30z m20 0 c-3 -10 -5 -4 -5 12 0 17 2 24
5 18 2 -7 2 -21 0 -30z m20 0 c-3 -10 -5 -4 -5 12 0 17 2 24 5 18 2 -7 2 -21
0 -30z m-460 5 c-3 -8 -6 -5 -6 6 -1 11 2 17 5 13 3 -3 4 -12 1 -19z m160 0
c-3 -8 -6 -5 -6 6 -1 11 2 17 5 13 3 -3 4 -12 1 -19z m20 -10 c-3 -7 -5 -2 -5
12 0 14 2 19 5 13 2 -7 2 -19 0 -25z m-60 -10 c-3 -8 -6 -5 -6 6 -1 11 2 17 5
13 3 -3 4 -12 1 -19z m20 0 c-3 -8 -6 -5 -6 6 -1 11 2 17 5 13 3 -3 4 -12 1
-19z"/>
<path d="M1847 3933 c-12 -12 -7 -31 9 -37 21 -8 45 11 37 30 -5 14 -34 19
-46 7z"/>
<path d="M3163 3924 c-3 -8 -1 -20 5 -26 16 -16 42 -2 42 22 0 24 -38 28 -47
4z"/>
<path d="M2140 3845 c-10 -11 -10 -19 -2 -27 15 -15 44 -2 40 19 -4 23 -22 27
-38 8z"/>
<path d="M2473 3839 c-42 -27 -43 -49 -3 -49 17 0 30 5 30 10 0 12 27 13 32 1
7 -20 68 -17 68 3 0 16 -59 56 -81 56 -8 0 -29 -10 -46 -21z"/>
<path d="M2410 3675 l0 -25 111 0 c109 0 110 0 107 23 -3 21 -8 22 -110 25
l-108 3 0 -26z"/>
<path d="M2410 3605 c0 -13 18 -15 111 -15 84 0 110 3 107 13 -3 8 -37 13
-111 15 -91 2 -107 0 -107 -13z"/>
<path d="M2410 3545 c0 -12 19 -15 110 -15 91 0 110 3 110 15 0 12 -19 15
-110 15 -91 0 -110 -3 -110 -15z"/>
<path d="M2410 3485 c0 -13 16 -15 107 -13 74 2 108 7 111 16 3 9 -23 12 -107
12 -93 0 -111 -2 -111 -15z"/>
<path d="M2410 3435 c0 -12 19 -15 110 -15 91 0 110 3 110 15 0 12 -19 15
-110 15 -91 0 -110 -3 -110 -15z"/>
<path d="M2410 3375 c0 -12 19 -15 110 -15 91 0 110 3 110 15 0 12 -19 15
-110 15 -91 0 -110 -3 -110 -15z"/>
<path d="M2410 3315 c0 -12 19 -15 110 -15 91 0 110 3 110 15 0 12 -19 15
-110 15 -91 0 -110 -3 -110 -15z"/>
<path d="M2410 3255 c0 -12 19 -15 110 -15 91 0 110 3 110 15 0 12 -19 15
-110 15 -91 0 -110 -3 -110 -15z"/>
<path d="M2410 3205 c0 -12 19 -15 110 -15 91 0 110 3 110 15 0 12 -19 15
-110 15 -91 0 -110 -3 -110 -15z"/>
<path d="M2410 3140 c0 -19 7 -20 110 -20 103 0 110 1 110 20 0 19 -7 20 -110
20 -103 0 -110 -1 -110 -20z"/>
<path d="M2410 3070 c0 -19 7 -20 110 -20 103 0 110 1 110 20 0 19 -7 20 -110
20 -103 0 -110 -1 -110 -20z"/>
<path d="M2410 3015 c0 -12 19 -15 110 -15 91 0 110 3 110 15 0 12 -19 15
-110 15 -91 0 -110 -3 -110 -15z"/>
<path d="M2410 2960 c0 -19 7 -20 110 -20 103 0 110 1 110 20 0 19 -7 20 -110
20 -103 0 -110 -1 -110 -20z"/>
<path d="M2410 2885 l0 -25 110 0 110 0 0 25 0 25 -110 0 -110 0 0 -25z"/>
<path d="M2864 3845 c-4 -9 -2 -21 4 -27 15 -15 44 -1 40 19 -4 23 -36 29 -44
8z"/>
<path d="M3855 3571 c-60 -25 -78 -103 -34 -147 54 -53 141 -22 147 53 5 66
-57 117 -113 94z m61 -36 c18 -14 17 -14 -12 -9 -43 8 -49 -7 -13 -31 51 -35
49 -65 -3 -65 -62 0 -87 53 -46 97 25 27 46 29 74 8z"/>
<path d="M1650 2921 c0 -29 3 -31 36 -31 33 0 35 2 32 28 -2 22 -8 28 -35 30
-31 3 -33 1 -33 -27z"/>
<path d="M1650 2835 c0 -10 10 -15 30 -15 20 0 30 5 30 15 0 10 -10 15 -30 15
-20 0 -30 -5 -30 -15z"/>
<path d="M1650 2795 c0 -10 10 -15 30 -15 20 0 30 5 30 15 0 10 -10 15 -30 15
-20 0 -30 -5 -30 -15z"/>
<path d="M1650 2745 c0 -10 11 -15 35 -15 24 0 35 5 35 15 0 10 -11 15 -35 15
-24 0 -35 -5 -35 -15z"/>
<path d="M1650 2690 c0 -18 5 -21 33 -18 20 2 32 8 32 18 0 10 -12 16 -32 18
-28 3 -33 0 -33 -18z"/>
<path d="M3337 2943 c-4 -3 -7 -17 -7 -30 0 -20 5 -23 35 -23 32 0 35 2 35 30
0 26 -4 30 -28 30 -16 0 -32 -3 -35 -7z"/>
<path d="M3332 2838 c7 -20 58 -23 58 -4 0 11 -10 16 -31 16 -20 0 -29 -4 -27
-12z"/>
<path d="M3337 2803 c-15 -14 -6 -23 23 -23 20 0 30 5 30 15 0 15 -40 21 -53
8z"/>
<path d="M3337 2753 c-15 -14 -6 -23 23 -23 20 0 30 5 30 15 0 15 -40 21 -53
8z"/>
<path d="M3335 2700 c-10 -17 4 -30 30 -28 34 3 35 38 1 38 -14 0 -28 -4 -31
-10z"/>
<path d="M1513 2290 c-35 -21 -63 -66 -63 -100 0 -69 69 -128 138 -117 110 18
132 170 31 223 -38 19 -68 18 -106 -6z"/>
<path d="M3114 1806 c-3 -7 -4 -33 -2 -57 3 -43 4 -44 38 -44 l35 0 3 58 3 57
-36 0 c-21 0 -38 -6 -41 -14z"/>
<path d="M2279 1658 c-1 -29 -2 -78 -3 -108 l-1 -55 263 -3 262 -2 0 110 0
110 -260 0 -260 0 -1 -52z m491 12 c0 -6 -83 -10 -230 -10 -147 0 -230 4 -230
10 0 6 83 10 230 10 147 0 230 -4 230 -10z m0 -40 c0 -5 -91 -10 -230 -12
-179 -2 -230 0 -230 10 0 9 53 12 230 12 141 0 230 -4 230 -10z m0 -50 c0 -6
-83 -10 -230 -10 -147 0 -230 4 -230 10 0 6 83 10 230 10 147 0 230 -4 230
-10z m-2 -45 c-9 -9 -458 -12 -458 -3 0 4 104 8 232 8 127 0 229 -2 226 -5z"/>
<path d="M3384 1676 c-10 -26 1 -51 22 -54 27 -4 47 21 39 48 -7 24 -53 28
-61 6z"/>
<path d="M3545 1472 c-16 -9 -32 -18 -35 -20 -2 -2 9 -14 25 -27 35 -28 67
-32 86 -9 11 14 10 18 -6 31 -14 11 -16 17 -7 20 17 6 5 23 -16 23 -9 0 -30
-8 -47 -18z"/>
<path d="M1930 1725 c0 -9 5 -15 11 -13 6 2 11 8 11 13 0 5 -5 11 -11 13 -6 2
-11 -4 -11 -13z"/>
<path d="M3598 1753 c-25 -6 -35 -51 -15 -70 13 -13 17 -13 41 2 44 29 24 79
-26 68z"/>
<path d="M1794 1601 c-2 -2 -1 -8 2 -12 7 -12 244 -11 244 0 0 9 -237 21 -246
12z"/>
<path d="M1790 1550 c0 -5 25 -10 55 -10 30 0 55 5 55 10 0 6 -25 10 -55 10
-30 0 -55 -4 -55 -10z"/>
<path d="M1930 1550 c0 -5 25 -10 55 -10 30 0 55 5 55 10 0 6 -25 10 -55 10
-30 0 -55 -4 -55 -10z"/>
<path d="M1795 1500 c-4 -6 15 -10 49 -10 31 0 56 5 56 10 0 6 -22 10 -49 10
-28 0 -53 -4 -56 -10z"/>
<path d="M1930 1500 c0 -5 25 -10 55 -10 30 0 55 5 55 10 0 6 -25 10 -55 10
-30 0 -55 -4 -55 -10z"/>
<path d="M1795 1450 c-4 -6 15 -10 49 -10 31 0 56 5 56 10 0 6 -22 10 -49 10
-28 0 -53 -4 -56 -10z"/>
<path d="M1930 1450 c0 -5 25 -10 55 -10 30 0 55 5 55 10 0 6 -25 10 -55 10
-30 0 -55 -4 -55 -10z"/>
<path d="M1792 1398 c3 -8 26 -14 56 -16 42 -2 52 0 52 12 0 13 -12 16 -56 16
-40 0 -55 -3 -52 -12z"/>
<path d="M1930 1395 c0 -12 13 -15 55 -15 42 0 55 3 55 15 0 12 -13 15 -55 15
-42 0 -55 -3 -55 -15z"/>
<path d="M1492 1478 c-16 -16 -15 -23 4 -42 21 -22 56 -3 52 27 -3 25 -37 34
-56 15z"/>
<path d="M2236 1081 c-18 -20 -13 -46 10 -55 9 -3 12 -11 8 -18 -4 -7 5 -2 19
11 15 14 30 21 34 18 3 -4 2 -7 -4 -7 -6 0 -14 -8 -17 -17 -5 -13 0 -11 18 6
25 23 27 49 3 34 -7 -4 -5 2 3 13 8 10 11 16 6 12 -5 -4 -18 -1 -30 7 -26 19
-29 19 -50 -4z"/>
<path d="M2785 1074 c-33 -33 4 -92 43 -68 24 16 27 42 6 65 -21 23 -28 24
-49 3z"/>
<path d="M2512 1038 c-18 -18 -14 -56 7 -68 15 -7 25 -5 42 9 21 16 22 22 11
45 -12 28 -40 34 -60 14z"/>
</g>
</svg>
